<svg id="svg" version="1.1" width="45" height="45" viewBox="0 0 45 45" xmlns="http://www.w3.org/2000/svg" xmlns:xlink="http://www.w3.org/1999/xlink" ><g id="svgg"><path id="path0" d="M189.333 8.368 C 103.773 13.513,30.127 77.838,13.022 162.364 C 8.255 185.920,8.297 213.873,13.133 235.657 L 13.833 238.814 17.667 241.786 C 22.806 245.769,41.012 258.967,58.167 271.145 C 65.867 276.611,72.187 281.102,72.213 281.125 C 72.290 281.196,80.667 352.158,80.667 352.745 C 80.667 353.256,84.358 353.305,130.108 353.399 L 179.550 353.500 181.358 355.134 C 192.293 365.016,210.027 364.934,220.333 354.953 L 221.833 353.500 271.319 353.333 L 320.805 353.167 325.039 317.424 C 327.368 297.765,329.324 281.538,329.386 281.364 C 329.449 281.189,335.875 276.511,343.667 270.967 C 367.219 254.211,384.011 241.945,387.051 239.276 C 387.834 238.589,388.053 237.871,388.964 233.000 C 411.412 112.934,311.932 0.996,189.333 8.368 M192.046 43.812 C 192.828 44.142,192.593 39.087,196.903 148.258 C 199.062 202.942,200.869 247.559,200.920 247.406 C 200.971 247.254,202.800 201.478,204.985 145.681 C 208.015 68.306,209.057 44.171,209.375 43.974 C 211.796 42.478,228.629 43.580,237.815 45.837 C 246.263 47.912,258.317 53.209,258.330 54.852 C 258.332 55.045,249.633 98.571,239.000 151.575 C 228.367 204.579,219.676 248.071,219.687 248.223 C 219.705 248.479,251.761 136.465,266.380 85.059 L 272.762 62.617 274.464 62.839 C 284.470 64.141,306.209 78.897,312.900 88.927 L 314.296 91.020 313.355 93.094 C 312.838 94.234,295.729 130.717,275.335 174.167 C 237.155 255.514,237.055 255.727,237.589 255.167 C 237.764 254.983,257.224 221.308,280.833 180.333 C 304.442 139.358,323.810 105.774,323.873 105.701 C 324.110 105.426,326.903 107.521,328.567 109.223 C 337.928 118.798,351.340 144.722,348.877 148.480 C 348.470 149.101,272.390 242.401,253.047 266.000 C 250.797 268.746,251.959 267.574,304.152 214.500 C 330.113 188.100,351.476 166.458,351.625 166.406 C 352.030 166.266,353.770 169.740,355.135 173.413 C 359.854 186.110,360.583 201.521,357.214 217.331 L 356.469 220.826 327.984 241.423 C 312.318 252.751,299.326 262.127,299.112 262.260 C 298.872 262.408,297.346 273.365,295.110 291.000 L 291.495 319.500 256.064 319.585 L 220.633 319.670 217.998 321.815 C 204.180 333.062,197.498 333.078,183.767 321.896 L 181.033 319.670 145.610 319.585 L 110.187 319.500 106.577 291.011 C 104.591 275.342,102.936 262.498,102.900 262.469 C 102.863 262.440,90.008 253.166,74.333 241.860 C 58.658 230.554,45.658 221.047,45.444 220.735 C 45.230 220.422,44.751 218.742,44.380 217.000 C 41.223 202.161,41.901 186.302,46.208 174.263 C 47.429 170.849,49.646 166.271,50.018 166.395 C 50.190 166.453,71.941 188.475,98.355 215.333 C 124.768 242.192,147.218 264.992,148.244 266.000 L 150.110 267.833 147.942 265.167 C 146.750 263.700,125.381 237.525,100.457 207.000 C 75.532 176.475,54.493 150.680,53.703 149.678 C 51.325 146.661,53.184 140.506,60.397 127.511 C 66.499 116.519,76.381 104.135,77.800 105.701 C 77.866 105.774,97.312 139.472,121.013 180.585 C 144.715 221.699,164.156 255.289,164.215 255.230 C 164.274 255.171,147.074 218.354,125.994 173.415 C 104.914 128.476,87.667 91.415,87.667 91.057 C 87.667 90.052,90.436 86.523,93.921 83.089 C 104.253 72.907,119.056 63.899,127.198 62.839 L 128.897 62.618 155.343 155.303 C 169.889 206.280,181.836 247.942,181.892 247.886 C 181.948 247.830,173.296 204.445,162.666 151.475 C 152.036 98.506,143.339 55.017,143.339 54.833 C 143.342 52.101,162.536 45.337,174.000 44.028 C 175.742 43.829,177.617 43.604,178.167 43.529 C 179.723 43.315,191.434 43.554,192.046 43.812 " stroke="none" fill="#ec1c23" fill-rule="evenodd"></path><path id="path1" d="M177.000 43.862 C 176.542 43.937,174.817 44.162,173.167 44.362 C 162.874 45.611,149.066 50.251,144.685 53.932 L 143.536 54.897 163.301 153.471 C 174.172 207.687,183.004 252.108,182.928 252.184 C 182.852 252.260,170.645 209.762,155.802 157.744 C 130.725 69.859,128.762 63.159,128.073 63.060 C 120.663 61.995,93.069 80.718,88.315 90.036 L 87.696 91.250 127.210 175.485 C 148.943 221.814,166.674 259.770,166.612 259.830 C 166.550 259.891,146.561 225.341,122.192 183.053 C 97.823 140.766,77.849 106.118,77.806 106.059 C 77.565 105.724,75.332 107.323,73.547 109.108 C 65.404 117.254,52.642 140.379,52.672 146.934 C 52.678 148.075,56.373 152.690,102.339 208.958 C 129.653 242.394,151.992 269.844,151.982 269.958 C 151.973 270.073,148.860 266.989,145.066 263.106 C 125.203 242.778,50.161 166.667,49.981 166.667 C 49.709 166.667,47.598 171.190,46.493 174.142 C 42.151 185.737,41.459 202.718,44.728 217.441 L 45.455 220.716 74.311 241.555 L 103.167 262.394 106.224 286.447 C 107.905 299.676,109.538 312.487,109.853 314.917 L 110.425 319.333 145.732 319.333 L 181.038 319.333 183.436 321.360 C 189.749 326.698,196.798 330.333,200.833 330.333 C 204.869 330.333,211.917 326.698,218.231 321.360 L 220.628 319.333 255.938 319.333 L 291.248 319.333 291.434 318.083 C 291.536 317.396,293.149 304.683,295.018 289.833 C 297.673 268.741,298.535 262.708,298.958 262.262 C 299.256 261.947,312.250 252.484,327.833 241.232 L 356.167 220.773 356.593 219.137 C 359.796 206.840,359.748 189.886,356.478 178.254 C 355.180 173.640,352.183 166.550,351.611 166.741 C 351.459 166.792,329.650 188.883,303.145 215.833 C 247.541 272.373,249.667 270.221,249.667 269.966 C 249.667 269.859,272.016 242.410,299.331 208.969 C 345.375 152.600,348.996 148.077,348.998 146.934 C 349.006 141.875,340.583 125.102,332.745 114.570 C 329.104 109.677,324.643 105.468,323.893 106.218 C 323.787 106.324,303.782 140.957,279.437 183.180 C 255.092 225.404,235.124 259.902,235.065 259.842 C 235.005 259.783,252.737 221.829,274.468 175.500 L 313.979 91.266 313.355 90.050 C 308.544 80.670,281.017 61.981,273.603 63.060 C 272.926 63.159,270.815 70.369,245.843 157.898 C 230.978 210.000,218.726 252.719,218.616 252.829 C 218.506 252.939,227.322 208.608,238.208 154.316 C 249.094 100.024,258.000 55.347,258.000 55.035 C 258.000 52.299,241.239 46.191,228.500 44.283 C 225.223 43.792,209.912 43.644,209.457 44.099 C 209.311 44.244,207.366 91.014,205.136 148.031 C 201.565 239.271,200.719 258.509,200.649 249.972 C 200.595 243.292,192.449 44.338,192.220 44.109 C 191.941 43.829,178.529 43.611,177.000 43.862 " stroke="none" fill="#fcd304" fill-rule="evenodd"></path><path id="path2" d="M186.750 43.563 C 187.071 43.647,187.596 43.647,187.917 43.563 C 188.237 43.479,187.975 43.411,187.333 43.411 C 186.692 43.411,186.429 43.479,186.750 43.563 M193.077 58.667 C 193.077 59.308,193.146 59.571,193.230 59.250 C 193.314 58.929,193.314 58.404,193.230 58.083 C 193.146 57.762,193.077 58.025,193.077 58.667 M208.411 59.333 C 208.411 59.975,208.479 60.237,208.563 59.917 C 208.647 59.596,208.647 59.071,208.563 58.750 C 208.479 58.429,208.411 58.692,208.411 59.333 M193.411 67.000 C 193.411 67.642,193.479 67.904,193.563 67.583 C 193.647 67.262,193.647 66.737,193.563 66.417 C 193.479 66.096,193.411 66.358,193.411 67.000 M193.744 75.333 C 193.744 75.975,193.813 76.237,193.896 75.917 C 193.980 75.596,193.980 75.071,193.896 74.750 C 193.813 74.429,193.744 74.692,193.744 75.333 M207.744 76.333 C 207.744 76.975,207.813 77.237,207.896 76.917 C 207.980 76.596,207.980 76.071,207.896 75.750 C 207.813 75.429,207.744 75.692,207.744 76.333 M194.077 83.667 C 194.077 84.308,194.146 84.571,194.230 84.250 C 194.314 83.929,194.314 83.404,194.230 83.083 C 194.146 82.762,194.077 83.025,194.077 83.667 M194.411 92.000 C 194.411 92.642,194.479 92.904,194.563 92.583 C 194.647 92.263,194.647 91.737,194.563 91.417 C 194.479 91.096,194.411 91.358,194.411 92.000 M207.077 93.333 C 207.077 93.975,207.146 94.237,207.230 93.917 C 207.314 93.596,207.314 93.071,207.230 92.750 C 207.146 92.429,207.077 92.692,207.077 93.333 M194.744 100.333 C 194.744 100.975,194.813 101.237,194.896 100.917 C 194.980 100.596,194.980 100.071,194.896 99.750 C 194.813 99.429,194.744 99.692,194.744 100.333 M206.744 102.000 C 206.744 102.642,206.813 102.904,206.896 102.583 C 206.980 102.263,206.980 101.737,206.896 101.417 C 206.813 101.096,206.744 101.358,206.744 102.000 M206.411 110.333 C 206.411 110.975,206.479 111.237,206.563 110.917 C 206.647 110.596,206.647 110.071,206.563 109.750 C 206.479 109.429,206.411 109.692,206.411 110.333 M206.077 119.000 C 206.077 119.642,206.146 119.904,206.230 119.583 C 206.314 119.263,206.314 118.737,206.230 118.417 C 206.146 118.096,206.077 118.358,206.077 119.000 M205.411 136.000 C 205.411 136.642,205.479 136.904,205.563 136.583 C 205.647 136.262,205.647 135.737,205.563 135.417 C 205.479 135.096,205.411 135.358,205.411 136.000 M196.411 142.333 C 196.411 142.975,196.479 143.237,196.563 142.917 C 196.647 142.596,196.647 142.071,196.563 141.750 C 196.479 141.429,196.411 141.692,196.411 142.333 M196.744 150.667 C 196.744 151.308,196.813 151.571,196.896 151.250 C 196.980 150.929,196.980 150.404,196.896 150.083 C 196.813 149.762,196.744 150.025,196.744 150.667 M204.744 153.000 C 204.744 153.642,204.813 153.904,204.896 153.583 C 204.980 153.262,204.980 152.737,204.896 152.417 C 204.813 152.096,204.744 152.358,204.744 153.000 M197.077 159.000 C 197.077 159.642,197.146 159.904,197.230 159.583 C 197.314 159.262,197.314 158.737,197.230 158.417 C 197.146 158.096,197.077 158.358,197.077 159.000 M197.411 167.333 C 197.411 167.975,197.479 168.237,197.563 167.917 C 197.647 167.596,197.647 167.071,197.563 166.750 C 197.479 166.429,197.411 166.692,197.411 167.333 M204.077 170.000 C 204.077 170.642,204.146 170.904,204.230 170.583 C 204.314 170.262,204.314 169.737,204.230 169.417 C 204.146 169.096,204.077 169.358,204.077 170.000 M197.744 175.667 C 197.744 176.308,197.813 176.571,197.896 176.250 C 197.980 175.929,197.980 175.404,197.896 175.083 C 197.813 174.762,197.744 175.025,197.744 175.667 M203.744 178.667 C 203.744 179.308,203.813 179.571,203.896 179.250 C 203.980 178.929,203.980 178.404,203.896 178.083 C 203.813 177.762,203.744 178.025,203.744 178.667 M333.000 185.167 C 331.634 186.542,330.592 187.667,330.683 187.667 C 330.775 187.667,331.968 186.542,333.333 185.167 C 334.699 183.792,335.742 182.667,335.650 182.667 C 335.558 182.667,334.366 183.792,333.000 185.167 M67.333 184.092 C 67.333 184.142,68.496 185.305,69.917 186.675 L 72.500 189.167 70.008 186.583 C 67.694 184.184,67.333 183.848,67.333 184.092 M203.411 187.000 C 203.411 187.642,203.479 187.904,203.563 187.583 C 203.647 187.262,203.647 186.737,203.563 186.417 C 203.479 186.096,203.411 186.358,203.411 187.000 M359.077 195.000 C 359.077 195.642,359.146 195.904,359.230 195.583 C 359.314 195.262,359.314 194.737,359.230 194.417 C 359.146 194.096,359.077 194.358,359.077 195.000 M42.417 195.500 C 42.421 196.233,42.489 196.494,42.569 196.079 C 42.649 195.665,42.646 195.065,42.562 194.746 C 42.479 194.427,42.414 194.767,42.417 195.500 M203.077 195.667 C 203.077 196.308,203.146 196.571,203.230 196.250 C 203.314 195.929,203.314 195.404,203.230 195.083 C 203.146 194.762,203.077 195.025,203.077 195.667 M42.411 201.000 C 42.411 201.642,42.479 201.904,42.563 201.583 C 42.647 201.262,42.647 200.737,42.563 200.417 C 42.479 200.096,42.411 200.358,42.411 201.000 M312.333 206.167 C 310.968 207.542,309.925 208.667,310.017 208.667 C 310.108 208.667,311.301 207.542,312.667 206.167 C 314.032 204.792,315.075 203.667,314.983 203.667 C 314.892 203.667,313.699 204.792,312.333 206.167 M88.000 205.092 C 88.000 205.142,89.162 206.305,90.583 207.675 L 93.167 210.167 90.675 207.583 C 88.361 205.184,88.000 204.848,88.000 205.092 M202.411 212.667 C 202.411 213.308,202.479 213.571,202.563 213.250 C 202.647 212.929,202.647 212.404,202.563 212.083 C 202.479 211.762,202.411 212.025,202.411 212.667 M199.411 217.667 C 199.411 218.308,199.479 218.571,199.563 218.250 C 199.647 217.929,199.647 217.404,199.563 217.083 C 199.479 216.762,199.411 217.025,199.411 217.667 M291.667 227.167 C 290.301 228.542,289.258 229.667,289.350 229.667 C 289.442 229.667,290.634 228.542,292.000 227.167 C 293.366 225.792,294.408 224.667,294.317 224.667 C 294.225 224.667,293.032 225.792,291.667 227.167 M199.744 226.000 C 199.744 226.642,199.813 226.904,199.896 226.583 C 199.980 226.262,199.980 225.737,199.896 225.417 C 199.813 225.096,199.744 225.358,199.744 226.000 M108.333 225.758 C 108.333 225.809,109.496 226.971,110.917 228.342 L 113.500 230.833 111.008 228.250 C 108.694 225.851,108.333 225.515,108.333 225.758 M201.744 229.667 C 201.744 230.308,201.813 230.571,201.896 230.250 C 201.980 229.929,201.980 229.404,201.896 229.083 C 201.813 228.762,201.744 229.025,201.744 229.667 M200.077 234.333 C 200.077 234.975,200.146 235.237,200.230 234.917 C 200.314 234.596,200.314 234.071,200.230 233.750 C 200.146 233.429,200.077 233.692,200.077 234.333 M200.411 242.667 C 200.411 243.308,200.479 243.571,200.563 243.250 C 200.647 242.929,200.647 242.404,200.563 242.083 C 200.479 241.762,200.411 242.025,200.411 242.667 M271.333 247.833 C 269.968 249.208,268.925 250.333,269.017 250.333 C 269.108 250.333,270.301 249.208,271.667 247.833 C 273.032 246.458,274.075 245.333,273.983 245.333 C 273.892 245.333,272.699 246.458,271.333 247.833 M201.077 246.667 C 201.077 247.308,201.146 247.571,201.230 247.250 C 201.314 246.929,201.314 246.404,201.230 246.083 C 201.146 245.762,201.077 246.025,201.077 246.667 M129.000 246.758 C 129.000 246.809,130.162 247.971,131.583 249.342 L 134.167 251.833 131.675 249.250 C 129.361 246.851,129.000 246.515,129.000 246.758 M252.294 266.639 C 252.272 266.746,252.269 266.937,252.287 267.064 C 252.306 267.191,251.979 267.566,251.561 267.897 C 250.849 268.463,250.151 269.333,250.411 269.333 C 250.475 269.333,251.166 268.683,251.945 267.889 C 252.841 266.976,253.174 266.444,252.848 266.444 C 252.565 266.444,252.316 266.532,252.294 266.639 M149.333 267.422 C 149.333 267.488,149.793 267.982,150.355 268.520 C 150.916 269.059,151.285 269.274,151.174 268.999 C 150.992 268.551,149.333 267.129,149.333 267.422 " stroke="none" fill="#f8880f" fill-rule="evenodd"></path><path id="path3" d="M192.757 48.000 C 192.757 48.825,192.822 49.163,192.902 48.750 C 192.981 48.337,192.981 47.663,192.902 47.250 C 192.822 46.837,192.757 47.175,192.757 48.000 M208.757 48.667 C 208.757 49.492,208.822 49.829,208.902 49.417 C 208.981 49.004,208.981 48.329,208.902 47.917 C 208.822 47.504,208.757 47.842,208.757 48.667 M193.084 56.500 C 193.088 57.233,193.156 57.494,193.236 57.079 C 193.315 56.665,193.312 56.065,193.229 55.746 C 193.146 55.427,193.080 55.767,193.084 56.500 M208.417 57.167 C 208.421 57.900,208.489 58.161,208.569 57.746 C 208.649 57.331,208.646 56.731,208.562 56.413 C 208.479 56.094,208.414 56.433,208.417 57.167 M193.417 64.833 C 193.421 65.567,193.489 65.827,193.569 65.413 C 193.649 64.998,193.646 64.398,193.562 64.079 C 193.479 63.761,193.414 64.100,193.417 64.833 M208.091 65.667 C 208.091 66.492,208.156 66.829,208.235 66.417 C 208.315 66.004,208.315 65.329,208.235 64.917 C 208.156 64.504,208.091 64.842,208.091 65.667 M193.751 73.167 C 193.754 73.900,193.823 74.161,193.902 73.746 C 193.982 73.331,193.979 72.731,193.896 72.413 C 193.812 72.094,193.747 72.433,193.751 73.167 M207.751 74.167 C 207.754 74.900,207.823 75.161,207.902 74.746 C 207.982 74.331,207.979 73.731,207.896 73.413 C 207.812 73.094,207.747 73.433,207.751 74.167 M194.084 81.500 C 194.088 82.233,194.156 82.494,194.236 82.079 C 194.315 81.665,194.312 81.065,194.229 80.746 C 194.146 80.427,194.080 80.767,194.084 81.500 M207.424 82.667 C 207.424 83.492,207.489 83.829,207.569 83.417 C 207.648 83.004,207.648 82.329,207.569 81.917 C 207.489 81.504,207.424 81.842,207.424 82.667 M308.000 83.500 C 308.996 84.508,309.886 85.333,309.977 85.333 C 310.069 85.333,309.329 84.508,308.333 83.500 C 307.338 82.492,306.448 81.667,306.356 81.667 C 306.264 81.667,307.004 82.492,308.000 83.500 M93.333 83.500 C 92.524 84.325,91.936 85.000,92.028 85.000 C 92.120 85.000,92.857 84.325,93.667 83.500 C 94.476 82.675,95.064 82.000,94.972 82.000 C 94.880 82.000,94.143 82.675,93.333 83.500 M194.417 89.833 C 194.421 90.567,194.489 90.827,194.569 90.413 C 194.649 89.998,194.646 89.398,194.562 89.079 C 194.479 88.761,194.414 89.100,194.417 89.833 M207.084 91.167 C 207.088 91.900,207.156 92.161,207.236 91.746 C 207.315 91.331,207.312 90.731,207.229 90.413 C 207.146 90.094,207.080 90.433,207.084 91.167 M194.751 98.167 C 194.754 98.900,194.823 99.161,194.902 98.746 C 194.982 98.331,194.979 97.731,194.896 97.413 C 194.812 97.094,194.747 97.433,194.751 98.167 M206.757 99.667 C 206.757 100.492,206.822 100.829,206.902 100.417 C 206.981 100.004,206.981 99.329,206.902 98.917 C 206.822 98.504,206.757 98.842,206.757 99.667 M195.091 106.667 C 195.091 107.492,195.156 107.829,195.235 107.417 C 195.315 107.004,195.315 106.329,195.235 105.917 C 195.156 105.504,195.091 105.842,195.091 106.667 M206.417 108.167 C 206.421 108.900,206.489 109.161,206.569 108.746 C 206.649 108.331,206.646 107.731,206.562 107.413 C 206.479 107.094,206.414 107.433,206.417 108.167 M73.146 109.083 L 72.167 110.167 73.250 109.188 C 73.846 108.649,74.333 108.162,74.333 108.104 C 74.333 107.847,74.058 108.074,73.146 109.083 M327.333 108.104 C 327.333 108.162,327.821 108.649,328.417 109.188 L 329.500 110.167 328.521 109.083 C 327.608 108.074,327.333 107.847,327.333 108.104 M195.424 115.000 C 195.424 115.825,195.489 116.162,195.569 115.750 C 195.648 115.337,195.648 114.662,195.569 114.250 C 195.489 113.837,195.424 114.175,195.424 115.000 M206.091 116.667 C 206.091 117.492,206.156 117.829,206.235 117.417 C 206.315 117.004,206.315 116.329,206.235 115.917 C 206.156 115.504,206.091 115.842,206.091 116.667 M195.757 123.333 C 195.757 124.158,195.822 124.496,195.902 124.083 C 195.981 123.671,195.981 122.996,195.902 122.583 C 195.822 122.171,195.757 122.508,195.757 123.333 M205.757 125.333 C 205.757 126.158,205.822 126.496,205.902 126.083 C 205.981 125.671,205.981 124.996,205.902 124.583 C 205.822 124.171,205.757 124.508,205.757 125.333 M196.084 131.833 C 196.088 132.567,196.156 132.827,196.236 132.413 C 196.315 131.998,196.312 131.398,196.229 131.079 C 196.146 130.761,196.080 131.100,196.084 131.833 M205.417 133.833 C 205.421 134.567,205.489 134.827,205.569 134.413 C 205.649 133.998,205.646 133.398,205.562 133.079 C 205.479 132.761,205.414 133.100,205.417 133.833 M196.417 140.167 C 196.421 140.900,196.489 141.161,196.569 140.746 C 196.649 140.331,196.646 139.731,196.562 139.413 C 196.479 139.094,196.414 139.433,196.417 140.167 M205.091 142.333 C 205.091 143.158,205.156 143.496,205.235 143.083 C 205.315 142.671,205.315 141.996,205.235 141.583 C 205.156 141.171,205.091 141.508,205.091 142.333 M196.751 148.500 C 196.754 149.233,196.823 149.494,196.902 149.079 C 196.982 148.665,196.979 148.065,196.896 147.746 C 196.812 147.427,196.747 147.767,196.751 148.500 M204.751 150.833 C 204.754 151.567,204.823 151.827,204.902 151.413 C 204.982 150.998,204.979 150.398,204.896 150.079 C 204.812 149.761,204.747 150.100,204.751 150.833 M197.084 156.833 C 197.088 157.567,197.156 157.827,197.236 157.413 C 197.315 156.998,197.312 156.398,197.229 156.079 C 197.146 155.761,197.080 156.100,197.084 156.833 M204.424 159.333 C 204.424 160.158,204.489 160.496,204.569 160.083 C 204.648 159.671,204.648 158.996,204.569 158.583 C 204.489 158.171,204.424 158.508,204.424 159.333 M197.417 165.167 C 197.421 165.900,197.489 166.161,197.569 165.746 C 197.649 165.331,197.646 164.731,197.562 164.413 C 197.479 164.094,197.414 164.433,197.417 165.167 M204.084 167.833 C 204.088 168.567,204.156 168.827,204.236 168.413 C 204.315 167.998,204.312 167.398,204.229 167.079 C 204.146 166.761,204.080 167.100,204.084 167.833 M346.995 170.917 L 343.167 174.833 347.083 171.005 C 349.238 168.900,351.000 167.138,351.000 167.089 C 351.000 166.849,350.550 167.279,346.995 170.917 M55.500 172.000 C 57.694 174.200,59.565 176.000,59.656 176.000 C 59.748 176.000,58.028 174.200,55.833 172.000 C 53.639 169.800,51.769 168.000,51.677 168.000 C 51.585 168.000,53.306 169.800,55.500 172.000 M197.751 173.500 C 197.754 174.233,197.823 174.494,197.902 174.079 C 197.982 173.665,197.979 173.065,197.896 172.746 C 197.812 172.427,197.747 172.767,197.751 173.500 M203.757 176.333 C 203.757 177.158,203.822 177.496,203.902 177.083 C 203.981 176.671,203.981 175.996,203.902 175.583 C 203.822 175.171,203.757 175.508,203.757 176.333 M198.091 182.000 C 198.091 182.825,198.156 183.162,198.235 182.750 C 198.315 182.338,198.315 181.662,198.235 181.250 C 198.156 180.838,198.091 181.175,198.091 182.000 M203.417 184.833 C 203.421 185.567,203.489 185.827,203.569 185.413 C 203.649 184.998,203.646 184.398,203.562 184.079 C 203.479 183.761,203.414 184.100,203.417 184.833 M326.500 191.667 C 324.306 193.867,322.585 195.667,322.677 195.667 C 322.769 195.667,324.639 193.867,326.833 191.667 C 329.028 189.467,330.748 187.667,330.656 187.667 C 330.565 187.667,328.694 189.467,326.500 191.667 M76.000 192.833 C 78.102 194.942,79.897 196.667,79.989 196.667 C 80.081 196.667,78.436 194.942,76.333 192.833 C 74.231 190.725,72.436 189.000,72.344 189.000 C 72.253 189.000,73.898 190.725,76.000 192.833 M198.424 190.333 C 198.424 191.158,198.489 191.496,198.569 191.083 C 198.648 190.671,198.648 189.996,198.569 189.583 C 198.489 189.171,198.424 189.508,198.424 190.333 M203.091 193.333 C 203.091 194.158,203.156 194.496,203.235 194.083 C 203.315 193.671,203.315 192.996,203.235 192.583 C 203.156 192.171,203.091 192.508,203.091 193.333 M198.757 198.667 C 198.757 199.492,198.822 199.829,198.902 199.417 C 198.981 199.004,198.981 198.329,198.902 197.917 C 198.822 197.504,198.757 197.842,198.757 198.667 M202.757 202.000 C 202.757 202.825,202.822 203.162,202.902 202.750 C 202.981 202.338,202.981 201.662,202.902 201.250 C 202.822 200.838,202.757 201.175,202.757 202.000 M199.084 207.167 C 199.088 207.900,199.156 208.161,199.236 207.746 C 199.315 207.331,199.312 206.731,199.229 206.413 C 199.146 206.094,199.080 206.433,199.084 207.167 M305.833 212.667 C 303.639 214.867,301.919 216.667,302.010 216.667 C 302.102 216.667,303.972 214.867,306.167 212.667 C 308.361 210.467,310.081 208.667,309.990 208.667 C 309.898 208.667,308.028 210.467,305.833 212.667 M202.417 210.500 C 202.421 211.233,202.489 211.494,202.569 211.079 C 202.649 210.665,202.646 210.065,202.562 209.746 C 202.479 209.427,202.414 209.767,202.417 210.500 M96.667 213.833 C 98.769 215.942,100.564 217.667,100.656 217.667 C 100.747 217.667,99.102 215.942,97.000 213.833 C 94.898 211.725,93.103 210.000,93.011 210.000 C 92.919 210.000,94.564 211.725,96.667 213.833 M199.417 215.500 C 199.421 216.233,199.489 216.494,199.569 216.079 C 199.649 215.665,199.646 215.065,199.562 214.746 C 199.479 214.427,199.414 214.767,199.417 215.500 M202.091 219.000 C 202.091 219.825,202.156 220.162,202.235 219.750 C 202.315 219.338,202.315 218.662,202.235 218.250 C 202.156 217.838,202.091 218.175,202.091 219.000 M199.751 223.833 C 199.754 224.567,199.823 224.827,199.902 224.413 C 199.982 223.998,199.979 223.398,199.896 223.079 C 199.812 222.761,199.747 223.100,199.751 223.833 M201.751 227.500 C 201.754 228.233,201.823 228.494,201.902 228.079 C 201.982 227.665,201.979 227.065,201.896 226.746 C 201.812 226.427,201.747 226.767,201.751 227.500 M285.328 233.583 L 281.500 237.500 285.417 233.672 C 287.571 231.567,289.333 229.804,289.333 229.755 C 289.333 229.515,288.883 229.945,285.328 233.583 M117.167 234.667 C 119.361 236.867,121.231 238.667,121.323 238.667 C 121.415 238.667,119.694 236.867,117.500 234.667 C 115.306 232.467,113.435 230.667,113.344 230.667 C 113.252 230.667,114.972 232.467,117.167 234.667 M200.084 232.167 C 200.088 232.900,200.156 233.161,200.236 232.746 C 200.315 232.331,200.312 231.731,200.229 231.413 C 200.146 231.094,200.080 231.433,200.084 232.167 M201.424 236.000 C 201.424 236.825,201.489 237.162,201.569 236.750 C 201.648 236.338,201.648 235.662,201.569 235.250 C 201.489 234.838,201.424 235.175,201.424 236.000 M200.417 240.500 C 200.421 241.233,200.489 241.494,200.569 241.079 C 200.649 240.665,200.646 240.065,200.562 239.746 C 200.479 239.427,200.414 239.767,200.417 240.500 M201.084 244.500 C 201.088 245.233,201.156 245.494,201.236 245.079 C 201.315 244.665,201.312 244.065,201.229 243.746 C 201.146 243.427,201.080 243.767,201.084 244.500 M200.751 248.833 C 200.754 249.567,200.823 249.827,200.902 249.413 C 200.982 248.998,200.979 248.398,200.896 248.079 C 200.812 247.761,200.747 248.100,200.751 248.833 M264.833 254.333 C 262.639 256.533,260.919 258.333,261.010 258.333 C 261.102 258.333,262.972 256.533,265.167 254.333 C 267.361 252.133,269.081 250.333,268.990 250.333 C 268.898 250.333,267.028 252.133,264.833 254.333 M137.667 255.500 C 139.769 257.608,141.564 259.333,141.656 259.333 C 141.747 259.333,140.102 257.608,138.000 255.500 C 135.898 253.392,134.103 251.667,134.011 251.667 C 133.919 251.667,135.564 253.392,137.667 255.500 M110.086 319.000 C 110.206 319.440,114.448 319.500,145.694 319.502 L 181.167 319.505 145.852 319.417 C 118.130 319.349,110.474 319.241,110.243 318.915 C 110.027 318.609,109.985 318.631,110.086 319.000 M291.333 318.944 C 291.333 319.238,282.632 319.353,255.917 319.415 L 220.500 319.497 255.815 319.583 C 289.326 319.665,292.375 319.597,291.561 318.783 C 291.436 318.658,291.333 318.731,291.333 318.944 " stroke="none" fill="#f45c18" fill-rule="evenodd"></path><path id="path4" d="M183.250 43.574 C 183.846 43.648,184.821 43.648,185.417 43.574 C 186.012 43.501,185.525 43.440,184.333 43.440 C 183.142 43.440,182.654 43.501,183.250 43.574 M216.250 43.574 C 216.846 43.648,217.821 43.648,218.417 43.574 C 219.012 43.501,218.525 43.440,217.333 43.440 C 216.142 43.440,215.654 43.501,216.250 43.574 M192.744 52.000 C 192.744 52.642,192.813 52.904,192.896 52.583 C 192.980 52.262,192.980 51.737,192.896 51.417 C 192.813 51.096,192.744 51.358,192.744 52.000 M208.744 52.667 C 208.744 53.308,208.813 53.571,208.896 53.250 C 208.980 52.929,208.980 52.404,208.896 52.083 C 208.813 51.762,208.744 52.025,208.744 52.667 M208.077 69.667 C 208.077 70.308,208.146 70.571,208.230 70.250 C 208.314 69.929,208.314 69.404,208.230 69.083 C 208.146 68.762,208.077 69.025,208.077 69.667 M207.411 86.667 C 207.411 87.308,207.479 87.571,207.563 87.250 C 207.647 86.929,207.647 86.404,207.563 86.083 C 207.479 85.763,207.411 86.025,207.411 86.667 M206.411 112.333 C 206.411 112.975,206.479 113.237,206.563 112.917 C 206.647 112.596,206.647 112.071,206.563 111.750 C 206.479 111.429,206.411 111.692,206.411 112.333 M195.411 119.000 C 195.411 119.642,195.479 119.904,195.563 119.583 C 195.647 119.263,195.647 118.737,195.563 118.417 C 195.479 118.096,195.411 118.358,195.411 119.000 M195.744 127.333 C 195.744 127.975,195.813 128.237,195.896 127.917 C 195.980 127.596,195.980 127.071,195.896 126.750 C 195.813 126.429,195.744 126.692,195.744 127.333 M205.744 129.333 C 205.744 129.975,205.813 130.237,205.896 129.917 C 205.980 129.596,205.980 129.071,205.896 128.750 C 205.813 128.429,205.744 128.692,205.744 129.333 M196.077 135.667 C 196.077 136.308,196.146 136.571,196.230 136.250 C 196.314 135.929,196.314 135.404,196.230 135.083 C 196.146 134.762,196.077 135.025,196.077 135.667 M205.077 146.333 C 205.077 146.975,205.146 147.237,205.230 146.917 C 205.314 146.596,205.314 146.071,205.230 145.750 C 205.146 145.429,205.077 145.692,205.077 146.333 M204.411 163.333 C 204.411 163.975,204.479 164.237,204.563 163.917 C 204.647 163.596,204.647 163.071,204.563 162.750 C 204.479 162.429,204.411 162.692,204.411 163.333 M338.660 179.583 L 335.500 182.833 338.750 179.673 C 341.769 176.738,342.152 176.333,341.910 176.333 C 341.861 176.333,340.398 177.796,338.660 179.583 M64.000 180.833 C 65.734 182.575,67.228 184.000,67.320 184.000 C 67.412 184.000,66.068 182.575,64.333 180.833 C 62.599 179.092,61.105 177.667,61.013 177.667 C 60.922 177.667,62.266 179.092,64.000 180.833 M203.411 189.000 C 203.411 189.642,203.479 189.904,203.563 189.583 C 203.647 189.262,203.647 188.737,203.563 188.417 C 203.479 188.096,203.411 188.358,203.411 189.000 M198.411 194.333 C 198.411 194.975,198.479 195.237,198.563 194.917 C 198.647 194.596,198.647 194.071,198.563 193.750 C 198.479 193.429,198.411 193.692,198.411 194.333 M359.112 198.333 C 359.112 199.708,359.171 200.271,359.243 199.583 C 359.315 198.896,359.315 197.771,359.243 197.083 C 359.171 196.396,359.112 196.958,359.112 198.333 M42.433 198.333 C 42.433 199.342,42.496 199.754,42.572 199.250 C 42.648 198.746,42.648 197.921,42.572 197.417 C 42.496 196.912,42.433 197.325,42.433 198.333 M317.993 200.583 L 314.833 203.833 318.083 200.673 C 321.102 197.738,321.485 197.333,321.243 197.333 C 321.194 197.333,319.731 198.796,317.993 200.583 M84.667 201.833 C 86.401 203.575,87.895 205.000,87.987 205.000 C 88.078 205.000,86.734 203.575,85.000 201.833 C 83.266 200.092,81.772 198.667,81.680 198.667 C 81.588 198.667,82.932 200.092,84.667 201.833 M198.744 202.667 C 198.744 203.308,198.813 203.571,198.896 203.250 C 198.980 202.929,198.980 202.404,198.896 202.083 C 198.813 201.762,198.744 202.025,198.744 202.667 M202.744 206.000 C 202.744 206.642,202.813 206.904,202.896 206.583 C 202.980 206.262,202.980 205.737,202.896 205.417 C 202.813 205.096,202.744 205.358,202.744 206.000 M199.077 211.000 C 199.077 211.642,199.146 211.904,199.230 211.583 C 199.314 211.262,199.314 210.737,199.230 210.417 C 199.146 210.096,199.077 210.358,199.077 211.000 M297.327 221.583 L 294.167 224.833 297.417 221.673 C 300.435 218.738,300.818 218.333,300.577 218.333 C 300.527 218.333,299.065 219.796,297.327 221.583 M105.000 222.500 C 106.734 224.242,108.228 225.667,108.320 225.667 C 108.412 225.667,107.068 224.242,105.333 222.500 C 103.599 220.758,102.105 219.333,102.013 219.333 C 101.922 219.333,103.266 220.758,105.000 222.500 M202.077 223.000 C 202.077 223.642,202.146 223.904,202.230 223.583 C 202.314 223.262,202.314 222.737,202.230 222.417 C 202.146 222.096,202.077 222.358,202.077 223.000 M201.411 240.000 C 201.411 240.642,201.479 240.904,201.563 240.583 C 201.647 240.262,201.647 239.737,201.563 239.417 C 201.479 239.096,201.411 239.358,201.411 240.000 M276.993 242.250 L 273.833 245.500 277.083 242.340 C 280.102 239.405,280.485 239.000,280.243 239.000 C 280.194 239.000,278.731 240.463,276.993 242.250 M125.667 243.500 C 127.401 245.242,128.895 246.667,128.987 246.667 C 129.078 246.667,127.734 245.242,126.000 243.500 C 124.266 241.758,122.772 240.333,122.680 240.333 C 122.588 240.333,123.932 241.758,125.667 243.500 M256.327 263.250 L 253.167 266.500 256.417 263.340 C 259.435 260.405,259.818 260.000,259.577 260.000 C 259.527 260.000,258.065 261.462,256.327 263.250 M146.000 264.167 C 147.734 265.908,149.228 267.333,149.320 267.333 C 149.412 267.333,148.068 265.908,146.333 264.167 C 144.599 262.425,143.105 261.000,143.013 261.000 C 142.922 261.000,144.266 262.425,146.000 264.167 " stroke="none" fill="#fcac09" fill-rule="evenodd"></path></g></svg>